<?xml version="1.0" encoding="utf-8"?>
<!-- Generator: Adobe Illustrator 24.0.2, SVG Export Plug-In . SVG Version: 6.00 Build 0)  -->
<svg version="1.1" id="Layer_1" xmlns="http://www.w3.org/2000/svg" xmlns:xlink="http://www.w3.org/1999/xlink" x="0px" y="0px"
	 viewBox="0 0 512 512" style="enable-background:new 0 0 512 512;" xml:space="preserve">
<style type="text/css">
	.st0{opacity:0.8;fill:#0B3652;}
	.st1{fill:#FFFFFF;}
</style>
<circle class="st0" cx="256" cy="256" r="256"/>
<g>
	<path class="st1" d="M404.5,119.7h-297c-18.5,0-33.5,15-33.5,33.5c0,18.5,15,33.5,33.5,33.5h297c18.5,0,33.5-15,33.5-33.5
		C438,134.7,423,119.7,404.5,119.7z"/>
	<path class="st1" d="M404.5,222.5h-297C89,222.5,74,237.5,74,256c0,18.5,15,33.5,33.5,33.5h297c18.5,0,33.5-15,33.5-33.5
		C438,237.5,423,222.5,404.5,222.5L404.5,222.5z"/>
	<path class="st1" d="M404.5,325.3h-297c-18.5,0-33.5,15-33.5,33.5c0,18.5,15,33.5,33.5,33.5h297c18.5,0,33.5-15,33.5-33.5
		C438,340.3,423,325.3,404.5,325.3z"/>
</g>
</svg>
